<svg xmlns="http://www.w3.org/2000/svg" viewbox="0 0 100 100">
    <g fill="white" stroke="black" stroke-width="2" stroke-linecap="round">
        <circle cx="50" cy="50" r="49"/>
        <path d="M 10 22 Q 0 80 55 98.5"/>
        <path d="M 25 8 Q 10 76 70 94"/>
        <path d="M 35 4 Q 20 70 80 88"/>
        <path d="M 55 65  Q 70 80 85 83"/>
        <path d="M 70 65  Q 80 75 90 78"/>
        <path d="M 85 68  Q 92 72 94 72"/>
        <path d="M 33 22 Q 60 10 92 25"/>
        <path d="M 33 37 Q 60 25 98 40"/>
        <path d="M 37 52 Q 60 40 98 55"/>
        <path d="M 46 67 Q 60 60 94 70" fill="none"/>
        <path d="M 47 1 Q 45 10 45 17"/>
        <path d="M 57 2 Q 55 10 56 16"/>
        <path d="M 67 4 Q 65 10 66 17"/>
        <path d="M 77 10 Q 75 15 76 19"/>
    </g>
</svg>